<?xml version="1.0" encoding="UTF-8"?>
<svg id="Camada_1" data-name="Camada 1" xmlns="http://www.w3.org/2000/svg" xmlns:xlink="http://www.w3.org/1999/xlink" viewBox="0 0 2000 2000">
  <defs>
    <style>
      .cls-1 {
        opacity: .9;
      }

      .cls-1, .cls-2 {
        fill: #035;
      }

      .cls-2 {
        opacity: .7;
      }

      .cls-3 {
        fill: #f07f2d;
      }

      .cls-4 {
        fill: url(#Gradiente_sem_nome_5);
      }
    </style>
    <linearGradient id="Gradiente_sem_nome_5" data-name="Gradiente sem nome 5" x1="271.21" y1="-10342.83" x2="558.17" y2="-5316.74" gradientTransform="translate(564 -6456.59) scale(1 -1)" gradientUnits="userSpaceOnUse">
      <stop offset="0" stop-color="#ebebeb"/>
      <stop offset="1" stop-color="#fff"/>
    </linearGradient>
  </defs>
  <rect class="cls-4" y="0" width="2000" height="2000" rx="347.83" ry="347.83"/>
  <g>
    <path class="cls-1" d="m1363.44,1505.73c-12.13,26.02-43.08,37.28-69.09,25.15-8.1-3.78-14.77-9.39-19.75-16.08l-1.72-2.47-134.09-191.49-72-102.81-51.01-72.87-2.12-3.03-16.25-23.21-213.53-304.96,498.6-418.37.8-.66c15-12.15,36.2-15.45,54.85-6.75,18.74,8.74,29.84,27.22,30.09,46.6l.02,651.69v41.87s0,63.33,0,63.33l-.02,288.87c0,.2,0,.43,0,.66v5.35s0,.14,0,.14c-.35,6.42-1.92,12.87-4.81,19.06Z"/>
    <path class="cls-2" d="m1013.67,1142.12c-4.98-6.63-11.64-12.15-19.69-15.91-7.96-3.71-16.38-5.25-24.57-4.88l-.27.02h-.09c-1.23.07-2.43.17-3.66.35h-.17s-88.34,7.76-88.34,7.76l-125.04,10.93-231.53,20.25h-.12s-4.05.36-4.05.36h-.06c-8.14.38-16.5-1.17-24.41-4.86-26.2-12.22-37.53-43.34-25.31-69.54,2.76-5.93,6.49-11.09,10.91-15.38l.09-.07,5.87-4.94h.04s220.03-184.65,220.03-184.65l48.52-40.69,32.07-26.92,213.53,304.96,16.25,23.21Z"/>
    <path class="cls-3" d="m1035.41,1401.19c-3.05,6.54-7.27,12.13-12.29,16.69l-2.08,1.76-.15.13-181.74,152.51-3.38,2.82c-14.91,11.58-35.63,14.6-53.93,6.06-17.92-8.36-28.87-25.62-29.98-44.07v-.35s-.02-2.39-.02-2.39v-3.39s-.01-236.4-.01-236.4v-.03s0-2.73,0-2.73v-.37s0-.14,0-.14c.25-6.75,1.82-13.58,4.86-20.1,7.67-16.45,22.86-27.02,39.56-29.49h.09s6.32-.57,6.32-.57l112.49-9.86,2.54-.2c8.38-.52,17.02.98,25.16,4.78,8.15,3.8,14.85,9.45,19.83,16.2l1.45,2.06,64.79,92.5.1.16,3.57,5.11.25.38c8.62,14.37,10.17,32.62,2.56,48.93Z"/>
  </g>
</svg>
